<svg xmlns="http://www.w3.org/2000/svg" version="1.1" xmlns:xlink="http://www.w3.org/1999/xlink" xmlns:svgjs="http://svgjs.dev/svgjs" width="1000" height="222" viewBox="0 0 1000 222"><g transform="matrix(1,0,0,1,-0.6060606060606233,0.30803681628275115)"><svg viewBox="0 0 396 88" data-background-color="#ffffff" preserveAspectRatio="xMidYMid meet" height="222" width="1000" xmlns="http://www.w3.org/2000/svg" xmlns:xlink="http://www.w3.org/1999/xlink"><g id="tight-bounds" transform="matrix(1,0,0,1,0.2400000000000091,-0.12210121727085266)"><svg viewBox="0 0 395.52 88.24420399535126" height="88.24420399535126" width="395.52"><g><svg viewBox="0 0 395.52 88.24420399535126" height="88.24420399535126" width="395.52"><g><svg viewBox="0 0 395.52 88.24420399535126" height="88.24420399535126" width="395.52"><g id="textblocktransform"><svg viewBox="0 0 395.52 88.24420399535126" height="88.24420399535126" width="395.52" id="textblock"><g><svg viewBox="0 0 395.52 88.24420399535126" height="88.24420399535126" width="395.52"><g transform="matrix(1,0,0,1,0,0)"><svg width="395.52" viewBox="1.7599999904632568 -37.55158996582031 231.96885681152344 51.76158905029297" height="88.24420399535126" data-palette-color="#000000"><path d="M34.86-5.32L34.86-5.32Q34.72-4.05 34.45-2.83 34.18-1.61 33.79-0.66 33.4 0.29 32.79 0.85 32.18 1.42 31.4 1.42L31.4 1.42Q30.62 1.42 29.98 0.22 29.35-0.98 28.78-2.95 28.22-4.93 27.76-7.42 27.29-9.91 26.93-12.48 26.56-15.04 26.32-17.48 26.07-19.92 25.93-21.73L25.93-21.73Q25.63-19.87 25.24-17.58 24.85-15.28 24.32-12.92 23.78-10.55 23.14-8.28 22.51-6.01 21.78-4.22 21.04-2.44 20.21-1.37 19.38-0.29 18.46-0.29L18.46-0.29Q17.63-0.29 16.8-1.42 15.97-2.54 15.19-4.37 14.4-6.2 13.72-8.45 13.04-10.69 12.45-12.96 11.87-15.23 11.43-17.26 10.99-19.29 10.74-20.65L10.74-20.65Q10.74-19.63 10.72-18.38 10.69-17.14 10.69-16.6L10.69-16.6Q10.69-16.36 10.67-14.99 10.64-13.62 10.5-11.72 10.35-9.81 10.06-7.64 9.77-5.47 9.2-3.61 8.64-1.76 7.81-0.49 6.98 0.78 5.76 0.88L5.76 0.88Q4.79 0.44 4.13-0.61 3.47-1.66 3.03-3.08 2.59-4.49 2.34-6.1 2.1-7.71 1.95-9.25 1.81-10.79 1.78-12.11 1.76-13.43 1.76-14.26L1.76-14.26Q1.76-15.72 1.93-17.94 2.1-20.17 2.49-22.61 2.88-25.05 3.52-27.49 4.15-29.93 5.05-31.86 5.96-33.79 7.15-35.01 8.35-36.23 9.91-36.23L9.91-36.23Q10.64-36.23 11.47-35.4 12.3-34.57 13.13-33.23 13.96-31.88 14.75-30.22 15.53-28.56 16.24-26.88 16.94-25.2 17.48-23.66 18.02-22.12 18.36-21.04L18.36-21.04Q18.75-22.22 19.34-23.78 19.92-25.34 20.63-27.03 21.34-28.71 22.19-30.35 23.05-31.98 23.97-33.28 24.9-34.57 25.85-35.38 26.81-36.18 27.78-36.18L27.78-36.18Q29.49-36.18 30.71-34.91 31.93-33.64 32.76-31.62 33.59-29.59 34.08-27.08 34.57-24.56 34.84-22.09 35.11-19.63 35.18-17.48 35.25-15.33 35.25-14.01L35.25-14.01Q35.25-13.48 35.25-12.55 35.25-11.62 35.23-10.45 35.21-9.28 35.11-7.96 35.01-6.64 34.86-5.32ZM49.31 14.21L49.31 14.21Q48.14 14.21 46.65 13.84 45.16 13.48 43.85 12.79 42.53 12.11 41.62 11.13 40.72 10.16 40.72 8.89L40.72 8.89Q40.72 8.4 40.96 7.91 41.21 7.42 41.62 7.06 42.04 6.69 42.53 6.47 43.02 6.25 43.55 6.25L43.55 6.25Q44.14 6.25 44.7 6.42 45.26 6.59 45.85 6.84L45.85 6.84Q46.48 7.08 47.09 7.28 47.7 7.47 48.39 7.47L48.39 7.47Q49.61 7.47 50.51 6.64 51.41 5.81 52.05 4.47 52.68 3.13 53.07 1.49 53.46-0.15 53.68-1.76 53.9-3.37 54-4.79 54.1-6.2 54.15-7.08L54.15-7.08Q52.44-4.49 50.75-3.1 49.07-1.71 46.63-1.71L46.63-1.71Q44.77-1.71 43.38-2.49 41.99-3.27 41.01-4.54 40.04-5.81 39.4-7.45 38.77-9.08 38.45-10.84 38.13-12.6 38.03-14.28 37.94-15.97 38.03-17.38L38.03-17.38Q38.08-18.46 38.3-20.19 38.52-21.92 39.01-23.58 39.5-25.24 40.38-26.39 41.26-27.54 42.67-27.44L42.67-27.44Q43.6-27.39 44.19-26.64 44.77-25.88 45.14-24.76 45.51-23.63 45.68-22.29 45.85-20.95 45.9-19.63 45.94-18.31 45.92-17.21 45.9-16.11 45.9-15.53L45.9-15.53Q45.9-14.7 45.94-13.87 45.99-13.04 46.29-12.38 46.58-11.72 47.19-11.33 47.8-10.94 48.92-10.94L48.92-10.94Q50.19-10.94 50.95-11.57 51.71-12.21 52.07-13.16 52.44-14.11 52.54-15.21 52.63-16.31 52.63-17.29L52.63-17.29Q52.63-17.97 52.63-18.95 52.63-19.92 52.66-21 52.68-22.07 52.85-23.12 53.02-24.17 53.39-25.02 53.76-25.88 54.37-26.42 54.98-26.95 55.95-26.95L55.95-26.95Q57.18-26.95 58.05-26 58.93-25.05 59.54-23.51 60.15-21.97 60.52-20.12 60.89-18.26 61.08-16.43 61.28-14.6 61.35-13.06 61.42-11.52 61.42-10.64L61.42-10.64Q61.42-8.59 61.28-5.98 61.13-3.37 60.72-0.61 60.3 2.15 59.47 4.81 58.64 7.47 57.3 9.57 55.95 11.67 54 12.94 52.05 14.21 49.31 14.21ZM88.91 0.63L88.91 0.63Q87.35 0.63 86.1-1.03 84.86-2.69 83.93-5 83-7.32 82.39-9.77 81.78-12.21 81.49-13.82L81.49-13.82Q81.1-12.84 80.44-11.43 79.78-10.01 78.93-8.45 78.07-6.88 77.09-5.3 76.12-3.71 75.07-2.44 74.02-1.17 72.97-0.39 71.92 0.39 70.94 0.39L70.94 0.39Q69.62 0.39 68.62-0.88 67.62-2.15 66.94-4.2 66.25-6.25 65.79-8.74 65.33-11.23 65.08-13.72 64.84-16.21 64.74-18.36 64.64-20.51 64.64-21.83L64.64-21.83Q64.64-23.05 64.77-24.17 64.89-25.29 65.25-26.17 65.62-27.05 66.33-27.56 67.04-28.08 68.21-28.08L68.21-28.08Q69.33-28.08 70.14-27.25 70.94-26.42 71.48-25.07 72.02-23.73 72.36-22.05 72.7-20.36 72.9-18.63 73.09-16.89 73.16-15.26 73.24-13.62 73.29-12.45L73.29-12.45Q73.58-13.48 74.12-14.97 74.65-16.46 75.29-18.14 75.92-19.82 76.68-21.48 77.44-23.14 78.19-24.46 78.95-25.78 79.68-26.61 80.41-27.44 81.1-27.44L81.1-27.44 81.15-27.44Q82.03-27.44 82.86-26.61 83.69-25.78 84.47-24.46 85.25-23.14 85.93-21.46 86.62-19.78 87.2-18.04 87.79-16.31 88.23-14.67 88.67-13.04 88.96-11.87L88.96-11.87Q89.01-13.28 89.11-15.06 89.2-16.85 89.47-18.65 89.74-20.46 90.2-22.17 90.67-23.88 91.35-25.22 92.04-26.56 93.04-27.37 94.04-28.17 95.36-28.17L95.36-28.17Q96.72-28.17 97.38-27.22 98.04-26.27 98.04-24.9L98.04-24.9Q98.04-23.44 97.68-21 97.31-18.55 96.67-15.7 96.04-12.84 95.19-9.94 94.33-7.03 93.31-4.69 92.28-2.34 91.16-0.85 90.03 0.63 88.91 0.63ZM120.94-8.69L120.94-8.69Q120.94-7.03 119.89-5.44 118.84-3.86 117.25-2.61 115.67-1.37 113.86-0.61 112.05 0.15 110.54 0.15L110.54 0.15Q107.95 0.15 105.93-1.15 103.9-2.44 102.53-4.44 101.16-6.45 100.46-8.86 99.75-11.28 99.75-13.57L99.75-13.57Q99.75-16.02 100.43-18.8 101.12-21.58 102.51-23.93 103.9-26.27 106.02-27.83 108.15-29.39 111.08-29.39L111.08-29.39Q112.74-29.39 114.25-28.83 115.76-28.27 116.89-27.25 118.01-26.22 118.69-24.8 119.38-23.39 119.38-21.63L119.38-21.63Q119.38-19.34 118.4-17.33 117.42-15.33 115.81-13.87 114.2-12.4 112.1-11.5 110-10.6 107.81-10.5L107.81-10.5Q108-9.08 108.95-8.45 109.9-7.81 111.22-7.81L111.22-7.81Q112.2-7.81 113.13-8.3 114.06-8.79 114.93-9.4 115.81-10.01 116.67-10.5 117.52-10.99 118.4-10.99L118.4-10.99Q119.38-10.99 120.16-10.35 120.94-9.72 120.94-8.69ZM113.03-20.65L113.03-20.65Q113.03-21.29 112.69-21.97 112.35-22.66 111.61-22.66L111.61-22.66Q110.54-22.66 109.81-22.09 109.07-21.53 108.59-20.68 108.1-19.82 107.83-18.85 107.56-17.87 107.51-17.04L107.51-17.04Q108.2-17.19 109.15-17.43 110.1-17.68 110.95-18.09 111.81-18.51 112.42-19.14 113.03-19.78 113.03-20.65ZM143.64-6.88L143.64-6.88Q143.64-6.01 143.57-4.59 143.5-3.17 143.15-1.83 142.81-0.49 142.08 0.49 141.35 1.46 140.03 1.46L140.03 1.46Q138.22 1.46 137.25 0.29 136.27-0.88 136.32-2.64L136.32-2.64Q134.76-1.27 132.78-0.49 130.8 0.29 128.75 0.29L128.75 0.29Q127.33 0.29 126.06-0.39 124.79-1.07 123.82-2.15 122.84-3.22 122.26-4.57 121.67-5.91 121.67-7.23L121.67-7.23Q121.67-9.57 123.11-11.33 124.55-13.09 126.65-14.33 128.75-15.58 131.12-16.31 133.49-17.04 135.34-17.29L135.34-17.29Q135.34-17.53 135.37-17.72 135.39-17.92 135.39-18.16L135.39-18.16Q135.39-19.68 134.56-20.61 133.73-21.53 132.22-21.53L132.22-21.53Q131-21.53 130.12-21.12 129.24-20.7 128.46-20.19 127.68-19.68 126.89-19.26 126.11-18.85 125.14-18.85L125.14-18.85Q124.06-18.85 123.31-19.53 122.55-20.21 122.55-21.29L122.55-21.29Q122.55-22.9 123.5-24.22 124.45-25.54 125.89-26.44 127.33-27.34 129.02-27.86 130.7-28.37 132.12-28.37L132.12-28.37Q133.44-28.37 134.76-28.05 136.07-27.73 137.25-27.08 138.42-26.42 139.37-25.46 140.32-24.51 140.91-23.24L140.91-23.24Q141.79-21.44 142.32-19.41 142.86-17.38 143.15-15.26 143.45-13.13 143.54-11.01 143.64-8.89 143.64-6.88ZM135.83-8.45L135.83-8.45 135.68-11.77Q135.59-11.77 135.49-11.79 135.39-11.82 135.29-11.82L135.29-11.82Q134.66-11.82 133.71-11.5 132.75-11.18 131.87-10.62 131-10.06 130.39-9.38 129.78-8.69 129.78-7.96L129.78-7.96Q129.78-7.28 130.26-7.03 130.75-6.79 131.39-6.79L131.39-6.79Q132.46-6.79 133.68-7.35 134.9-7.91 135.83-8.45ZM157.95 1.76L157.95 1.76Q154.48 1.76 152.55 0.85 150.62-0.05 149.67-1.71 148.72-3.37 148.52-5.71 148.33-8.06 148.33-10.94L148.33-10.94Q148.33-13.23 148.47-15.55 148.62-17.87 148.91-20.51L148.91-20.51Q148.23-20.51 147.84-20.48 147.45-20.46 147.2-20.46L147.2-20.46Q145.64-20.46 144.49-21.14 143.35-21.83 143.35-23.24L143.35-23.24Q143.35-24.12 144.01-24.8 144.67-25.49 145.69-25.98 146.72-26.46 147.91-26.76 149.11-27.05 150.18-27.15L150.18-27.15Q150.18-28.52 150.38-30.18 150.57-31.84 151.09-33.28 151.6-34.72 152.48-35.69 153.36-36.67 154.72-36.67L154.72-36.67Q155.51-36.67 156.12-36.21 156.73-35.74 157.12-35.03 157.51-34.33 157.7-33.45 157.9-32.57 157.9-31.74L157.9-31.74Q157.9-30.76 157.75-29.74 157.6-28.71 157.21-27.2L157.21-27.2Q158.04-27.29 158.34-27.32 158.63-27.34 158.87-27.34L158.87-27.34Q159.7-27.34 160.61-27.2 161.51-27.05 162.27-26.71 163.02-26.37 163.51-25.81 164-25.24 164-24.46L164-24.46Q164-23.58 163.29-22.9 162.59-22.22 161.51-21.73 160.44-21.24 159.22-20.97 158-20.7 156.92-20.61L156.92-20.61Q156.63-18.6 156.51-16.92 156.38-15.23 156.24-13.53L156.24-13.53Q156.14-12.7 156.07-11.84 155.99-10.99 155.99-10.11L155.99-10.11Q155.99-9.47 156.04-8.62 156.09-7.76 156.38-6.98 156.68-6.2 157.31-5.64 157.95-5.08 159.07-5.08L159.07-5.08Q159.75-5.08 160.49-5.2 161.22-5.32 161.95-5.32L161.95-5.32Q163.22-5.32 163.78-4.44 164.34-3.56 164.34-2.2L164.34-2.2Q164.34-1.17 163.73-0.42 163.12 0.34 162.19 0.81 161.27 1.27 160.12 1.51 158.97 1.76 157.95 1.76ZM187.49-12.65L187.49-12.65Q187.49-11.82 187.46-10.18 187.44-8.54 187.31-6.76 187.19-4.98 187-3.39 186.8-1.81 186.51-1.07L186.51-1.07Q186.12-0.15 185.48 0.54 184.85 1.22 183.77 1.22L183.77 1.22Q182.11 1.22 181.38-0.1 180.65-1.42 180.4-3.37 180.16-5.32 180.21-7.62 180.26-9.91 180.16-11.87 180.06-13.82 179.62-15.14 179.18-16.46 178.01-16.46L178.01-16.46Q176.4-16.46 175.55-15.94 174.69-15.43 174.33-14.6 173.96-13.77 173.89-12.7 173.81-11.62 173.72-10.45L173.72-10.45Q173.62-9.33 173.57-7.42 173.52-5.52 173.13-3.66 172.74-1.81 171.84-0.46 170.93 0.88 169.17 0.88L169.17 0.88Q168.1 0.88 167.44 0.05 166.78-0.78 166.39-2.1 166-3.42 165.83-5.03 165.66-6.64 165.63-8.18 165.61-9.72 165.63-10.99 165.66-12.26 165.66-12.89L165.66-12.89Q165.66-13.87 165.73-16.11 165.81-18.36 166.05-21.12 166.29-23.88 166.68-26.81 167.07-29.74 167.71-32.15 168.34-34.57 169.25-36.08 170.15-37.6 171.37-37.55L171.37-37.55Q172.15-37.5 172.71-36.87 173.28-36.23 173.64-35.23 174.01-34.23 174.25-33.06 174.5-31.88 174.62-30.74 174.74-29.59 174.77-28.61 174.79-27.64 174.79-27.1L174.79-27.1Q174.79-25.83 174.74-24.56 174.69-23.29 174.59-22.02L174.59-22.02Q175.72-23.54 177.6-24.51 179.48-25.49 181.38-25.49L181.38-25.49Q183.82-25.49 185.07-24.15 186.31-22.8 186.85-20.83 187.39-18.85 187.44-16.63 187.49-14.4 187.49-12.65ZM211.41-8.69L211.41-8.69Q211.41-7.03 210.36-5.44 209.31-3.86 207.72-2.61 206.13-1.37 204.33-0.61 202.52 0.15 201.01 0.15L201.01 0.15Q198.42 0.15 196.39-1.15 194.37-2.44 193-4.44 191.63-6.45 190.92-8.86 190.22-11.28 190.22-13.57L190.22-13.57Q190.22-16.02 190.9-18.8 191.58-21.58 192.98-23.93 194.37-26.27 196.49-27.83 198.62-29.39 201.55-29.39L201.55-29.39Q203.21-29.39 204.72-28.83 206.23-28.27 207.36-27.25 208.48-26.22 209.16-24.8 209.85-23.39 209.85-21.63L209.85-21.63Q209.85-19.34 208.87-17.33 207.89-15.33 206.28-13.87 204.67-12.4 202.57-11.5 200.47-10.6 198.27-10.5L198.27-10.5Q198.47-9.08 199.42-8.45 200.37-7.81 201.69-7.81L201.69-7.81Q202.67-7.81 203.6-8.3 204.52-8.79 205.4-9.4 206.28-10.01 207.14-10.5 207.99-10.99 208.87-10.99L208.87-10.99Q209.85-10.99 210.63-10.35 211.41-9.72 211.41-8.69ZM203.5-20.65L203.5-20.65Q203.5-21.29 203.16-21.97 202.81-22.66 202.08-22.66L202.08-22.66Q201.01-22.66 200.28-22.09 199.54-21.53 199.05-20.68 198.57-19.82 198.3-18.85 198.03-17.87 197.98-17.04L197.98-17.04Q198.66-17.19 199.62-17.43 200.57-17.68 201.42-18.09 202.28-18.51 202.89-19.14 203.5-19.78 203.5-20.65ZM230.3-18.26L230.3-18.26Q229.62-18.21 229.13-18.38 228.64-18.55 228.15-18.75L228.15-18.75Q227.71-18.95 227.27-19.12 226.84-19.29 226.3-19.24L226.3-19.24Q225.32-19.19 224.56-18.7 223.81-18.21 223.2-17.48 222.59-16.75 222.15-15.84 221.71-14.94 221.46-14.06L221.46-14.06Q221.32-13.48 221.24-12.28 221.17-11.08 221.17-9.72L221.17-9.72Q221.12-8.3 221.12-7.03 221.12-5.76 221.02-5.03L221.02-5.03Q220.98-4.25 220.78-3.2 220.59-2.15 220.17-1.22 219.76-0.29 219.07 0.34 218.39 0.98 217.31 0.98L217.31 0.98Q216.48 0.98 215.87 0.49 215.26 0 214.85-0.81 214.43-1.61 214.16-2.69 213.9-3.76 213.75-4.88L213.75-4.88Q213.6-6.05 213.53-7.23 213.46-8.4 213.43-9.45 213.41-10.5 213.43-11.38 213.46-12.26 213.46-12.79L213.46-12.79Q213.41-14.5 213.29-16.24 213.16-17.97 213.16-19.68L213.16-19.68Q213.16-20.75 213.26-22.07 213.36-23.39 213.8-24.54 214.24-25.68 215.09-26.46 215.95-27.25 217.46-27.25L217.46-27.25Q218.29-27.25 218.88-26.71 219.46-26.17 219.83-25.39 220.19-24.61 220.39-23.73 220.59-22.85 220.63-22.12L220.63-22.12Q221.81-24.02 223.27-25.22 224.74-26.42 227.08-26.51L227.08-26.51Q228.25-26.56 229.4-26.29 230.55-26.03 231.5-25.42 232.45-24.8 233.06-23.83 233.67-22.85 233.72-21.53L233.72-21.53Q233.82-19.97 232.79-19.14 231.77-18.31 230.3-18.26Z" opacity="1" transform="matrix(1,0,0,1,0,0)" fill="#000000" class="undefined-text-0" data-fill-palette-color="primary" id="text-0"></path></svg></g></svg></g></svg></g></svg></g><g></g></svg></g><defs></defs></svg><rect width="395.52" height="88.24420399535126" fill="none" stroke="none" visibility="hidden"></rect></g></svg></g></svg>